<svg id="Capa_1" data-name="Capa 1" xmlns="http://www.w3.org/2000/svg" viewBox="0 0 311.24 78.27"><defs><style>.cls-1{fill:none;stroke:#1d1d1b;stroke-miterlimit:10;stroke-width:8px;}</style></defs><line class="cls-1" x1="3.47" y1="73.05" x2="67.38" y2="33.02"/><line class="cls-1" x1="118.74" y1="73.05" x2="3.47" y2="73.05"/><line class="cls-1" x1="59.27" y1="35.74" x2="118.74" y2="73.05"/><path class="cls-1" d="M45.93,29.55c-.18-.27-.35-.55-.52-.84A15.92,15.92,0,0,1,50.52,7.43a14.48,14.48,0,0,1,20.36,5.33,15.92,15.92,0,0,1-5.11,21.29"/><circle class="cls-1" cx="152.05" cy="40.65" r="26.14"/><path class="cls-1" d="M191.9,31.8a17.7,17.7,0,0,1,.14-2.29,17.14,17.14,0,0,1,34.14,1.63"/><line class="cls-1" x1="191.9" y1="30.05" x2="191.9" y2="71.06"/><line class="cls-1" x1="191.9" y1="46.16" x2="218.59" y2="46.16"/><line class="cls-1" x1="240.84" y1="11.95" x2="241.38" y2="71.06"/><path class="cls-1" d="M241.11,35.22a19.47,19.47,0,0,1,.15-2.52,18.9,18.9,0,0,1,37.66,1.78"/><line class="cls-1" x1="278.92" y1="34.09" x2="278.92" y2="71.06"/><line class="cls-1" x1="299.6" y1="21.51" x2="299.84" y2="71.06"/><line class="cls-1" x1="299.71" y1="7.2" x2="299.71" y2="16.7"/></svg>